<?xml version="1.0" encoding="UTF-8" standalone="no"?>
<!-- Created with Inkscape (http://www.inkscape.org/) -->

<svg
   version="1.1"
   id="svg1"
   width="286.2366"
   height="261.01694"
   viewBox="0 0 286.23661 261.01694"
   sodipodi:docname="452387973_1014953523045519_871115287210108003_n.jpg"
   xml:space="preserve"
   xmlns:inkscape="http://www.inkscape.org/namespaces/inkscape"
   xmlns:sodipodi="http://sodipodi.sourceforge.net/DTD/sodipodi-0.dtd"
   xmlns="http://www.w3.org/2000/svg"
   xmlns:svg="http://www.w3.org/2000/svg"><defs
     id="defs1" /><sodipodi:namedview
     id="namedview1"
     pagecolor="#ffffff"
     bordercolor="#000000"
     borderopacity="0.25"
     inkscape:showpageshadow="2"
     inkscape:pageopacity="0.0"
     inkscape:pagecheckerboard="0"
     inkscape:deskcolor="#d1d1d1"><inkscape:page
       x="0"
       y="0"
       width="286.2366"
       height="261.01694"
       id="page2"
       margin="0"
       bleed="0" /></sodipodi:namedview><g
     inkscape:groupmode="layer"
     inkscape:label="Image"
     id="g1"
     transform="translate(-29.65377,-40.480247)"><g
       inkscape:label="Capa 1"
       id="layer1"
       transform="matrix(1.3196093,0,0,1.3331085,298.00494,-14.994171)"
       style="opacity:1"><g
         id="g242"><ellipse
           style="opacity:1;fill:#fffcff;fill-opacity:1;fill-rule:evenodd;stroke:#000000;stroke-width:2.4088;stroke-linecap:round;stroke-dasharray:none;stroke-opacity:1;paint-order:markers fill stroke"
           id="path241"
           cx="-95.134392"
           cy="117.05869"
           rx="71.662491"
           ry="74.241463" /><g
           id="g233"><g
             id="g232"
             transform="matrix(1.0821215,0,0,1.0821215,-208.54534,-16.281269)"><path
               id="path9"
               style="opacity:1;fill:#f2f2f2;fill-opacity:1;fill-rule:evenodd;stroke:#000000;stroke-width:3.526;stroke-linecap:round;stroke-dasharray:none;stroke-opacity:1;paint-order:markers fill stroke"
               d="m 130.11441,91.194036 c -0.58914,11.648294 -10.86685,19.947344 -24.03357,19.947344 -13.166721,0 -23.241836,-8.53606 -24.363011,-20.145233 -1.105047,-11.442169 10.500665,-22.197989 24.363011,-22.090883 13.12049,0.101374 24.62019,10.690178 24.03357,22.288772 z"
               sodipodi:nodetypes="sssss" /><path
               style="opacity:1;fill:#020202;fill-opacity:1;fill-rule:evenodd;stroke-width:0.326001;stroke-linecap:round;paint-order:markers fill stroke"
               d="m 121.3888,91.028956 -6.32614,-0.101427 -2.49146,-4.767427 c -0.0827,-0.629554 -0.081,-1.251437 0.0133,-1.864899 0,0 1.58266,-2.509003 2.58686,-2.574486 2.41659,-0.157583 5.99014,2.814433 5.99014,2.814433 0.28115,0.489664 0.52883,1.032881 0.58508,1.882384 0.0585,1.537141 -0.008,3.074282 -0.35776,4.611422 z"
               id="path11-6"
               sodipodi:nodetypes="ccccscccc" /><path
               style="opacity:1;fill:#020202;fill-opacity:1;fill-rule:evenodd;stroke-width:0.326001;stroke-linecap:round;paint-order:markers fill stroke"
               d="m 118.37322,73.802399 c 1.29886,0.90131 3.3495,2.855462 4.36141,4.041313 0.79076,0.92668 0.68171,1.643837 0.12328,2.455564 -0.52247,0.758809 -1.86908,0.937886 -3.30094,0.311627 -1.6543,-0.723548 -2.87685,-1.386481 -4.33943,-2.294936 -1.02239,-0.64582 -2.24123,-1.093553 -2.95684,-2.123085 -0.667,-0.959589 -0.5761,-1.999974 -0.0671,-2.6654 0.38406,-0.502083 1.09393,-0.801462 1.95559,-0.916202 1.21359,-0.08649 2.1748,-0.07714 4.22405,1.191117 z"
               id="path10-8"
               sodipodi:nodetypes="cssscsscc" /><path
               style="opacity:1;fill:#020202;fill-opacity:1;fill-rule:evenodd;stroke-width:0.326001;stroke-linecap:round;paint-order:markers fill stroke"
               d="m 105.59264,76.244248 c 1.73098,0.06487 3.1684,-0.05583 4.60776,0.694239 1.19758,0.624076 2.61049,1.805427 2.60313,2.892639 -0.007,1.016393 -1.40504,2.02897 -2.48239,2.658795 -1.66088,1.036279 -3.93788,0.677201 -5.8216,0.703124 -1.32341,0.0081 -2.55708,0.307659 -3.6381,-0.574164 -0.80523,-0.683807 -1.935998,-1.814631 -1.883787,-2.736204 0.03939,-0.695356 0.654601,-1.426397 1.364847,-2.045894 1.51202,-1.592623 2.48966,-1.713616 5.25014,-1.592535 z"
               id="path10"
               sodipodi:nodetypes="cssscsssc" /><path
               style="opacity:1;fill:#020202;fill-opacity:1;fill-rule:evenodd;stroke-width:0.326001;stroke-linecap:round;paint-order:markers fill stroke"
               d="m 92.175106,73.857357 c -1.283002,0.962693 -2.341954,1.825815 -3.027723,3.153577 -0.709326,1.373371 -1.232665,2.701734 -0.46655,3.386712 1.537945,1.375066 2.272561,1.12644 3.375259,0.718475 1.900045,-0.702958 3.380569,-1.579102 4.828978,-2.534952 1.0131,-0.692012 2.45836,-1.766094 2.790223,-3.009054 0.232159,-0.946418 0.125073,-1.753821 -0.428889,-2.429246 -0.417976,-0.509632 -1.530748,-1.018601 -2.422999,-1.009513 -1.702947,0.01734 -3.172728,0.689899 -4.648303,1.724001 z"
               id="path10-1"
               sodipodi:nodetypes="cssscssscc" /><path
               style="opacity:0.997067;fill:#020202;fill-opacity:1;fill-rule:evenodd;stroke-width:0.326001;stroke-linecap:round;paint-order:markers fill stroke"
               d="m 90.160413,84.703111 0.486346,5.534522 4.737148,0.09668 3.374961,-5.551859 c 0,0 -2.540874,-3.211574 -3.538702,-3.342114 -0.835514,-0.109306 -5.059753,3.262771 -5.059753,3.262771 z"
               id="path11"
               sodipodi:nodetypes="ccccsc" /></g><g
             id="g231"><g
               id="g230"
               transform="matrix(1.0821215,0,0,1.0821215,-208.54534,-16.281269)"><g
                 id="g7"
                 transform="translate(-79.439018,-13.710663)"><path
                   style="opacity:1;fill:#f8ec40;fill-opacity:1;fill-rule:evenodd;stroke:#000000;stroke-width:0.526;stroke-linecap:round;stroke-dasharray:none;paint-order:markers fill stroke"
                   d="m 148.01573,103.7028 c 23.9448,0.3376 47.81674,0.60235 71.50519,0.6836 0.30148,35.63702 -4.8515,65.18055 -34.53427,89.00725 -32.86045,-20.447 -35.00785,-57.97443 -36.97092,-89.69085 z"
                   id="path1"
                   sodipodi:nodetypes="cccc" /><path
                   style="opacity:1;fill:#0a423f;fill-opacity:1;fill-rule:evenodd;stroke:#000000;stroke-width:0.526;stroke-linecap:round;stroke-dasharray:none;paint-order:markers fill stroke"
                   d="m 157.04332,158.94373 c 9.25037,-5.23629 17.23927,-7.8362 27.00181,-9.89436 8.42536,2.14482 18.9931,5.39645 27.73165,8.59955 -4.77114,13.48226 -13.6217,25.40405 -26.79013,35.74473 -12.62094,-8.718 -22.2665,-20.33332 -27.94333,-34.44992 z"
                   id="path2"
                   sodipodi:nodetypes="ccccc" /><path
                   style="fill:#fffefd;fill-opacity:1;fill-rule:evenodd;stroke:#000000;stroke-width:0.752446;stroke-linecap:round;stroke-dasharray:none;paint-order:markers fill stroke"
                   d="m 185.55964,143.89711 -10.91207,8.39981 10.46524,12.38184 10.34202,-12.01439 z"
                   id="path26" /></g><path
                 style="opacity:1;fill:#6e7182;fill-opacity:1;fill-rule:evenodd;stroke:#000000;stroke-width:0.526;stroke-linecap:round;stroke-dasharray:none;paint-order:markers fill stroke"
                 d="m 90.939018,139.08485 c -2.102439,0.83307 -3.923001,1.57273 -5.838214,2.34339 -0.12591,-4.14033 -1.365316,-27.21418 -1.777886,-30.56025 -0.21373,-4.88791 -0.66638,-9.75693 -1.09377,-14.629175 l -0.687305,-6.088103 4.990083,0.07938 c 1.77161,18.330778 2.034812,25.648258 3.011802,36.770998 0.40786,4.30183 0.8019,7.805 1.39529,12.08376 z"
                 id="path4"
                 sodipodi:nodetypes="cccccccc" /><path
                 style="opacity:1;fill:#6e7182;fill-opacity:1;fill-rule:evenodd;stroke:#000000;stroke-width:0.526;stroke-linecap:round;stroke-dasharray:none;paint-order:markers fill stroke"
                 d="m 121.32391,140.17595 c 2.08191,0.67386 4.1069,1.2234 6.02212,1.99406 0.12591,-4.14033 1.37683,-27.5456 1.7894,-30.89167 0.21373,-4.88791 0.66638,-9.75693 1.09377,-14.629171 l 0.6396,-6.013996 -4.98887,-0.02912 c -1.77161,18.330767 -1.98832,25.682647 -2.96531,36.805387 -0.40786,4.30183 -0.99732,8.48575 -1.59071,12.76451 z"
                 id="path12"
                 sodipodi:nodetypes="cccccccc" /></g></g></g></g><g
         id="g18"
         transform="matrix(1.0821215,0,0,1.0821215,-208.54534,-16.281269)"><path
           id="path239"
           style="font-weight:bold;font-size:27.5372px;font-family:'Creato Display';-inkscape-font-specification:'Creato Display, Bold';font-variant-ligatures:no-contextual;letter-spacing:-0.0211667px;word-spacing:-0.431271px;display:inline;fill:#040004;fill-rule:evenodd;stroke-width:0.326;stroke-linecap:round;paint-order:markers fill stroke"
           inkscape:label="black"
           d="m 28.672772,157.21452 c -0.193669,0.008 -0.387014,0.0316 -0.57723,0.0689 -0.249202,0.0493 -0.420614,0.0895 -0.506187,0.10695 -0.187754,0.0193 -0.376802,0.0271 -0.56243,0.0747 -0.565144,0.15836 -0.488427,0.16373 -0.611272,0.21244 -0.06996,0.0277 -0.09333,0.038 -0.140608,0.0571 -1.37732,0.40142 -2.992665,1.1303 -4.304067,2.59174 -0.295742,0.32958 -0.385844,0.74594 -0.623113,1.10468 -1.486928,-1.69601 -3.647401,-2.7286 -6.145285,-2.4804 h -0.003 l -3.79196,0.378 c -4.1613659,0.41235 -7.0109032,3.92148 -6.5671075,8.07704 v 0.006 l 2.0454681,19.14288 v 0.003 c 0.4417605,4.11457 3.9089474,6.92849 8.0279444,6.51379 l -0.0059,0.001 13.301463,-1.32298 c 0.54273,-0.0533 0.541708,-0.1328 0.846604,-0.23588 0.319803,0.039 0.351259,0.11742 0.877687,0.0645 l -0.0059,0.001 1.240305,-0.12307 c 0.674319,0.85793 1.484949,1.67166 2.511693,2.34122 1.350826,0.8809 2.810522,1.41536 4.301107,1.74346 -0.445423,1.99922 -0.552963,4.07699 -0.333017,6.13433 0.47337,4.42786 2.362612,8.7156 5.890711,11.68557 3.554721,2.99239 8.272063,4.17015 13.029129,3.69789 3.257832,-0.32343 6.334589,-1.3999 8.89379,-3.2232 0.72967,0.40897 1.4745,0.73395 2.240838,0.97282 -0.616897,2.10571 -0.805527,4.31176 -0.57575,6.46105 0.385547,3.60637 1.792931,7.1816 4.623764,9.76922 2.905753,2.65611 6.782234,3.69613 10.498195,3.32722 1.154721,-0.11464 2.142713,-0.53529 3.151087,-0.91275 0.48503,0.0622 0.897746,0.23714 1.434195,0.18314 l -0.0059,0.003 3.421941,-0.3399 c 1.562906,-0.15349 2.894931,-0.7703 3.954769,-1.67607 2.050597,0.70886 4.206442,1.13565 6.466464,0.91129 3.08642,-0.30641 6.16238,-1.3596 8.60221,-3.53966 0.19527,-0.17449 0.27168,-0.41827 0.45291,-0.60215 1.4889,1.63077 3.61379,2.61556 6.0624,2.36905 l -0.006,0.001 3.78604,-0.37652 c 3.91821,-0.3848 6.56972,-3.54621 6.51234,-7.3782 0.65202,1.2115 1.48216,2.36922 2.66118,3.33748 2.82981,2.32402 6.29723,2.77869 9.19869,2.49065 1.11052,-0.11025 2.06629,-0.51297 3.04156,-0.87173 0.46371,0.0508 0.88157,0.20923 1.37499,0.1597 l -0.003,0.003 3.42194,-0.34283 c 1.32333,-0.12999 2.44624,-0.63599 3.41306,-1.32298 2.12851,0.71373 4.23812,0.70071 5.82115,0.54355 1.16973,-0.1161 2.32019,-0.33189 3.02232,-0.46737 l -0.64827,0.0601 c 0.21883,-0.002 0.43744,-0.0236 0.65271,-0.063 0.40399,-0.0782 0.48559,-0.20519 0.78592,-0.31206 0.50637,0.0796 1.01203,0.16922 1.60145,0.10988 l -0.003,0.001 3.42194,-0.34137 c 0.52881,-0.0519 0.90137,-0.3054 1.36315,-0.46004 1.0639,0.17088 2.11864,0.38735 3.27541,0.27251 2.72869,-0.2709 5.38731,-1.32402 7.52916,-3.12358 2.65662,1.35838 5.68312,1.81058 8.63182,1.51784 2.26627,-0.22499 4.30795,-1.07155 6.18672,-2.17859 1.21713,0.68286 2.64557,1.03077 4.21083,0.87319 l -0.006,0.003 3.58919,-0.35748 c 4.16439,-0.40897 7.01859,-3.92224 6.5745,-8.07998 v -0.003 l -2.04695,-19.14287 v -0.001 c -0.44128,-4.11024 -3.90026,-6.92125 -8.01314,-6.51526 h -0.006 l -3.59363,0.35456 c -3.51494,0.34606 -5.96309,2.9473 -6.41466,6.23689 -0.68092,-0.0913 -1.31545,-0.30165 -2.03067,-0.28716 h -0.0104 c -0.48994,0.0105 -0.96614,0.0418 -1.42975,0.0879 -1.31662,0.13071 -2.5979,0.46791 -3.84524,0.90104 1.73272,-7.27473 -0.92959,-12.17409 -3.90836,-15.21074 -2.71495,-2.5505 -6.36539,-3.77841 -10.08229,-3.71694 -0.004,-10e-6 -0.008,-10e-6 -0.0119,0 -0.46251,0.008 -0.9449,0.0355 -1.44307,0.085 -2.87103,0.28503 -5.63762,1.31534 -7.8903,3.08108 -1.89337,-0.93094 -3.89676,-1.52496 -5.90255,-1.56911 -0.80704,-0.0178 -1.61454,0.0191 -2.42585,0.0996 -2.63431,0.26152 -5.26052,1.04296 -7.49363,2.61665 -1.57564,-0.76192 -3.25198,-1.17664 -4.86206,-1.2424 -0.73459,-0.0299 -1.46747,-0.003 -2.19644,0.0703 l 0.001,-10e-4 c -1.09973,0.10967 -2.04549,0.50916 -3.01196,0.86441 -0.45866,-0.0488 -0.87842,-0.20611 -1.36167,-0.15823 h -0.003 l -3.43082,0.3399 c -1.50156,0.1488 -2.77341,0.74545 -3.8112,1.59402 -1.54977,-0.57165 -3.2076,-0.9601 -5.00711,-0.93034 -0.004,-1e-5 -0.008,-1e-5 -0.0118,0 -0.49479,0.009 -0.97673,0.04 -1.44455,0.0864 -1.16006,0.11516 -2.18222,0.54254 -3.23249,0.90689 -1.08128,-3.16354 -4.00052,-5.24472 -7.52176,-4.89486 h -0.004 l -3.595112,0.35748 c -3.446409,0.34149 -5.872455,2.84837 -6.393938,6.04643 -1.144367,-3.03708 -4.012715,-5.01394 -7.452194,-4.67218 h -0.003 l -3.59659,0.35749 c -1.382686,0.137 -2.589706,0.63565 -3.58771,1.37425 -0.678044,0.40484 -1.557178,0.97308 -2.690782,1.01677 -1.287593,0.0497 -2.244182,-0.18131 -2.778107,-1.87971 -1.311209,-3.26219 -1.414873,-6.76448 -1.78349,-10.21415 v -0.001 c -0.293007,-2.74078 -1.49789,-5.692 -4.052455,-7.81479 -2.478184,-2.05934 -5.516192,-2.78591 -8.33728,-2.83495 h -0.0044 c -0.809842,-0.0135 -1.610022,0.0271 -2.400687,0.10549 -1.984943,0.19706 -3.862203,0.83955 -5.636138,1.71855 -1.018215,-0.44296 -2.175088,-0.67331 -3.436742,-0.54795 h -0.0044 l -3.427861,0.3399 c -0.531107,0.0527 -0.902669,0.3062 -1.364632,0.46151 -1.062253,-0.17027 -2.114696,-0.38554 -3.268013,-0.27104 -0.558036,0.0554 -1.018824,0.27426 -1.539282,0.3985 -1.487209,-2.74069 -4.307467,-4.64113 -7.57208,-4.8304 -0.01432,-7.5e-4 -0.02859,-4.7e-4 -0.04292,-0.001 -0.01207,-6.3e-4 -0.01761,5.8e-4 -0.0296,0 -0.442163,-0.0214 -0.830327,-0.0137 -1.080457,-0.003 z m 15.845718,17.08736 c 0.179215,0.32703 0.513707,0.93518 0.430703,0.94058 -0.01957,-0.1831 0.02606,-0.16691 -0.0296,0.30621 -0.02093,0.17793 -0.09869,0.43498 -0.162809,0.65782 l -6.894204,0.6886 c -0.08082,-0.15467 -0.177809,-0.33865 -0.229412,-0.48348 -0.132333,-0.3714 -0.112588,-0.45884 -0.09769,-0.31939 0.01961,0.18342 -0.02544,0.16627 0.0296,-0.29302 0.02037,-0.16994 0.11321,-0.46339 0.19093,-0.7179 z m 101.95371,17.8448 c 0.004,0.002 0.008,0.004 0.0118,0.006 -0.0197,-8.4e-4 -0.003,-5.8e-4 -0.0237,-0.001 0.004,-0.001 0.008,-0.003 0.0118,-0.004 z m -45.33924,5.26261 c 0.0322,0.0801 0.054,0.12045 0.0903,0.22709 0.14953,0.43989 0.1106,0.48598 0.0873,0.26811 -0.0243,-0.22742 -0.088,0.19292 -0.11544,0.50252 l -7.169503,0.66076 c -0.0607,-0.19301 -0.141133,-0.42775 -0.128767,-0.31206 0.02396,0.22409 -0.02531,0.21833 0.02664,-0.27984 0.0094,-0.0901 0.03208,-0.14672 0.05328,-0.24906 z m -48.158783,1.13105 0.0059,0.004 c 0.01654,0.0666 0.06166,0.10902 0.07992,0.17435 -0.0087,-0.0311 -0.09049,-0.19612 -0.08584,-0.17728 z m 79.024333,1.90169 2.99124,5.33293 -5.29572,0.5245 -0.51211,-3.7814 z m -3.06228,2.25477 c -0.18384,0.55886 -0.30174,1.12215 -0.30489,1.17207 -0.004,0.065 -0.0536,-0.36932 0.27233,-1.14863 z m 57.77634,6.57826 c 0.001,0.004 0.003,0.0104 0.004,0.0161 -1e-5,5.7e-4 0,0.004 0,0.004 -10e-4,-0.004 -0.003,-0.008 -0.004,-0.0117 1.5e-4,-0.001 -1.6e-4,-0.007 0,-0.009 z m -32.35747,0.58457 c 1.83016,-0.0907 4.12406,1.40364 3.95772,4.0246 -0.0832,1.31047 -0.99637,2.50059 -1.80569,2.99465 -0.80932,0.49406 -1.44544,0.53991 -1.87674,0.54501 5.4e-4,-1e-5 -0.33549,-0.0203 -0.54615,-0.041 l 0.23533,-7.51885 z m 15.3114,0.60215 c 0.0322,0.0802 0.0525,0.12027 0.0888,0.22709 0.14954,0.43992 0.11208,0.48599 0.0888,0.26811 -0.0243,-0.22741 -0.0895,0.1944 -0.11692,0.50399 l -7.16802,0.66076 c -0.0608,-0.19381 -0.14265,-0.42969 -0.13025,-0.31353 0.024,0.22407 -0.0238,0.21975 0.0281,-0.27837 0.009,-0.09 0.0321,-0.14822 0.0533,-0.25053 z m -16.70416,6.59438 c 0.0624,0.0459 0.41672,0.15705 0.76224,0.26371 -0.0454,-0.0108 -0.10822,-0.0203 -0.14653,-0.0308 -0.20556,-0.0563 -0.3277,-0.10395 -0.42182,-0.14211 -0.11369,-0.0461 -0.1414,-0.0647 -0.19389,-0.0908 z m -67.809782,1.80059 c -0.236828,-0.49881 -0.08145,-0.22729 0.06956,0.21684 0.151016,0.44413 0.113399,0.4916 0.09028,0.27543 -0.02425,-0.22679 -0.08721,0.1938 -0.113966,0.50253 l -7.173939,0.65782 c -0.06028,-0.19266 -0.141501,-0.4268 -0.128767,-0.30766 0.02371,0.2218 -0.0249,0.21404 0.02812,-0.29009 0.009,-0.0859 0.02905,-0.1376 0.04884,-0.23442 z m 60.067492,4.85678 c 0.0405,0.0685 0.38545,0.40122 0.55503,0.62559 l -0.0237,0.007 c -0.48559,-0.44843 -0.6181,-0.77945 -0.53135,-0.63292 z"
           sodipodi:nodetypes="ccccscscccccccccccccccscsssccssscccccsscccccsscccccsccccccccscsccccccccccccccccsscccsccccccccccccccccccccccssccsccccccccscccscccsssccccccscccscsccccccccccccccccccccccsscccscssccscccccssccssccssccsccscsccccc" /><path
           id="path240-0"
           style="display:inline;fill:#fffcff;fill-rule:evenodd;stroke-width:0.326001;stroke-linecap:round;paint-order:markers fill stroke"
           inkscape:label="white"
           d="m 27.615996,161.32803 c -2.471406,0.92457 -3.301364,1.8451 -3.776481,3.39301 -0.639062,2.08204 -3.220249,1.92809 -4.110071,0.44716 -1.037766,-1.32125 -2.397642,-2.39155 -4.147964,-2.40285 h -0.003 l -3.79196,0.37653 c -1.8330064,0.18108 -3.3289105,2.02473 -3.133326,3.85612 v 0.001 0.001 l 2.045468,19.14287 c 0.194805,1.81442 2.014782,3.29319 3.830443,3.11039 l 13.305903,-1.32297 c 0.295567,-0.029 0.559293,-0.16115 0.831804,-0.26958 0.292408,0.0542 0.582645,0.12978 0.882127,0.0996 l 3.571428,-0.35455 c 0.611161,1.25033 1.441219,2.38558 2.653781,3.17632 2.044611,1.33333 4.565743,1.70485 7.261263,1.43725 0.229966,-0.0228 0.421655,-0.12898 0.648275,-0.16116 -1.875139,2.65656 -2.589094,5.98224 -2.223078,9.40589 0.387832,3.62774 1.895646,6.92799 4.5468,9.15974 2.656311,2.2361 6.280183,3.20321 10.181459,2.81591 3.457724,-0.34328 6.482822,-1.65316 8.611095,-3.82682 0.225526,-0.23034 0.299732,-0.55711 0.501746,-0.8058 0.449634,0.58044 0.863268,1.19338 1.490439,1.616 1.815779,1.22357 4.030913,1.56134 6.284412,1.33762 0.648921,-0.0644 1.21231,-0.31455 1.816056,-0.48494 -0.785816,0.55553 -1.595976,1.09188 -2.168314,1.88704 -1.580993,2.1965 -2.095247,4.99314 -1.784975,7.89537 0.310295,2.90247 1.403373,5.52393 3.39826,7.34743 2.011253,1.83846 4.774821,2.61348 7.532118,2.33975 1.158088,-0.11498 2.221397,-0.4467 3.170328,-0.91861 0.451234,0.15989 0.928137,0.24034 1.409034,0.19193 l 3.426381,-0.3399 c 1.400245,-0.13751 2.590996,-1.24566 2.995679,-2.5771 2.103374,1.41974 4.6779,2.08611 7.421114,1.81378 2.48199,-0.2464 4.72619,-1.06514 6.4265,-2.58442 2.37988,-2.12655 2.33934,-4.81595 3.32414,-4.77464 1.52581,0.73813 1.23823,2.78401 2.14819,4.05089 0.72354,1.00734 1.96882,1.66064 3.21277,1.53541 l 3.789,-0.37506 c 1.83386,-0.1801 3.33193,-2.0241 3.13628,-3.85612 l -0.51802,-4.85238 6.28293,-0.62559 c 0.0624,-0.006 0.11455,-0.0458 0.17613,-0.0557 l 0.0252,0.24467 c 0.24038,2.24846 1.06491,4.46623 2.88023,5.95706 1.81884,1.49374 4.1598,1.85903 6.38654,1.63797 1.12128,-0.11132 2.14939,-0.42552 3.05488,-0.87319 0.4351,0.14638 0.89585,0.2104 1.35723,0.16409 l 3.42786,-0.34137 c 1.35028,-0.13263 2.50668,-1.17178 2.95128,-2.43937 0.14638,0.13518 0.18222,0.32911 0.34782,0.45271 1.82834,1.36469 3.97192,1.40185 5.93215,1.20724 0.9216,-0.0915 2.01342,-0.29175 2.67302,-0.41902 h 0.003 c 0.39278,-0.076 0.6389,-0.42595 0.97537,-0.63585 0.55199,0.2667 1.14284,0.4442 1.75686,0.38239 l 3.42638,-0.34137 c 0.47969,-0.0471 0.92838,-0.21529 1.33799,-0.46004 1.02406,0.27462 2.13442,0.38799 3.29761,0.27251 2.75856,-0.27386 5.31791,-1.58137 6.91197,-3.79605 0.18825,-0.26154 0.22345,-0.60134 0.38186,-0.87905 0.25596,0.26779 0.38635,0.63199 0.67639,0.87026 2.19729,1.80519 5.13636,2.50233 8.19076,2.1991 2.75917,-0.27392 5.16673,-1.43931 6.94452,-3.26422 0.65359,1.23722 2.03956,2.10346 3.44711,1.96176 l 3.59363,-0.35749 c 1.83388,-0.1801 3.33196,-2.02409 3.13628,-3.85612 v -0.001 l -2.04695,-19.14288 c -0.19459,-1.81247 -2.00932,-3.28796 -3.82304,-3.10892 h -0.006 l -3.59511,0.35602 c -1.83386,0.1801 -3.33194,2.02263 -3.13629,3.85465 v 0.001 0.001 l 0.41443,3.87224 c -1.765,-1.10782 -3.7946,-1.81057 -6.02244,-1.76544 h -0.007 c -0.37794,0.008 -0.75389,0.0327 -1.13226,0.0703 -3.0617,0.30396 -5.80803,1.58022 -7.58836,3.79898 -0.22677,0.28261 -0.27522,0.65219 -0.46475,0.95524 -0.21988,-0.24968 -0.32988,-0.58557 -0.57723,-0.81166 -1.0571,-0.96629 -2.332,-1.60134 -3.69427,-1.98227 0.64158,-0.34585 1.31907,-0.64143 1.86046,-1.12519 1.7141,-1.53161 2.67507,-3.66291 2.90687,-5.84571 v -0.003 c 0.56301,-3.54347 -0.55483,-7.43949 -3.20139,-10.31677 -1.90765,-1.7921 -4.55526,-2.72365 -7.39299,-2.67672 h -0.006 c -0.36305,0.007 -0.74179,0.027 -1.13374,0.0659 -3.06631,0.30441 -5.79038,1.63498 -7.51732,3.87077 -0.10275,0.13303 -0.11407,0.30807 -0.20869,0.44539 -0.23892,-0.27134 -0.37562,-0.60137 -0.66307,-0.8395 -1.58429,-1.31244 -3.64517,-1.89823 -5.86555,-1.9471 -0.63284,-0.014 -1.28674,0.0148 -1.96407,0.082 -2.69393,0.26744 -5.01095,1.08033 -6.67959,2.71482 -0.33787,0.33096 -0.45159,0.7693 -0.70748,1.1457 -0.0527,-0.0589 -0.0678,-0.13734 -0.12285,-0.19486 -1.43359,-1.49885 -3.42873,-2.19559 -5.38008,-2.27528 -0.54212,-0.0221 -1.09651,-0.004 -1.65917,0.0527 -1.10977,0.11067 -2.12927,0.42303 -3.02676,0.86733 -0.43192,-0.14434 -0.89063,-0.20504 -1.34835,-0.15969 h -0.003 l -3.43082,0.33843 c -1.40608,0.13898 -2.59689,1.25979 -2.99568,2.59907 -1.75978,-1.19054 -3.83251,-1.95592 -6.13788,-1.9178 h -0.006 c -0.37897,0.007 -0.75733,0.0328 -1.13522,0.0703 -2.5902,0.25715 -4.80014,1.39495 -6.50791,3.04445 l -0.42034,-3.92351 c -0.19466,-1.8131 -2.01165,-3.29066 -3.826,-3.11039 h -0.004 l -3.595112,0.35748 c -1.833017,0.18118 -3.331898,2.02472 -3.136286,3.85612 v 0.001 10e-4 l 0.177609,1.64091 c -0.319787,-9.3e-4 -0.616944,-0.0909 -0.942809,-0.0586 -2.214602,0.21986 -4.159732,1.27323 -5.721983,2.76023 l -0.396661,-3.7184 c -0.194664,-1.81311 -2.011644,-3.28773 -3.826002,-3.10745 h -0.003 l -3.59659,0.35748 c -1.832999,0.18118 -3.33039,2.02326 -3.134806,3.85465 7.1e-5,6.5e-4 -7.1e-5,0.002 0,0.003 l 0.352259,3.28913 c -1.397093,-0.75376 -2.946794,-1.22033 -4.637086,-1.24972 h -0.003 c -0.628052,-0.0105 -1.277484,0.018 -1.953703,0.085 -0.720903,0.0716 -1.291592,0.42836 -1.851487,0.6548 -1.219004,0.493 -1.353844,-0.31731 -1.439986,-1.59679 -0.0389,-0.57777 -0.759767,-5.88673 -1.235184,-8.71511 -0.07481,-0.44506 -0.340684,-2.0651 -0.493833,-3.49764 l -0.634954,-5.94241 c -0.205632,-1.92348 -1.04225,-3.90296 -2.690782,-5.27286 -1.629556,-1.35414 -3.732286,-1.9129 -5.952875,-1.9515 h -0.003 c -0.637408,-0.0106 -1.287947,0.0216 -1.956663,0.0879 -2.442646,0.2425 -4.546807,0.99492 -6.211889,2.37491 -0.739438,-0.79164 -1.779865,-1.31041 -2.862471,-1.20284 h -0.003 l -3.427861,0.3399 c -0.479558,0.0476 -0.931495,0.21799 -1.340951,0.46297 -1.024297,-0.27451 -2.134116,-0.38904 -3.293174,-0.27397 -1.811365,0.17982 -3.394907,0.94139 -4.801374,1.94564 0.108955,-0.54479 0.201177,-1.09616 0.143568,-1.63504 -0.236038,-2.20796 -2.493303,-5.68822 -7.041128,-4.44483 z m 81.253334,44.13486 c 0.62909,0.3516 0.23362,4.44206 -0.19197,6.25717 -1.33732,-1.58212 -3.13348,-2.73109 -5.06675,-3.46031 l 2.26304,-0.22416 c 1.39828,-0.13732 2.58932,-1.24375 2.99568,-2.5727 z"
           sodipodi:nodetypes="cssccccccccccccsscsssscsscssssccccsssscccccccssccccssccccccsscssccccccccccccccccscscsccscccscsscsccsccccccccccccccccccccccccsccsscsssccsssccccccscsccccsc" /><path
           id="path235"
           style="font-weight:bold;font-size:27.5372px;font-family:'Creato Display';-inkscape-font-specification:'Creato Display, Bold';font-variant-ligatures:no-contextual;letter-spacing:-0.0211667px;word-spacing:-0.431271px;direction:ltr;display:inline;fill:#000000;fill-opacity:1;fill-rule:evenodd;stroke-width:0.326;stroke-linecap:round;paint-order:markers fill stroke"
           sodipodi:type="inkscape:offset"
           inkscape:radius="0"
           inkscape:original="M 29.400391 164.54102 C 29.249877 164.53202 29.089299 164.53633 28.921875 164.55273 C 27.58248 164.6857 26.912244 165.54068 27.021484 166.5625 C 27.130721 167.5843 27.967248 168.28922 29.306641 168.15625 C 30.646035 168.02328 31.288925 167.1722 31.179688 166.15039 C 31.084108 165.25631 30.453997 164.60138 29.400391 164.54102 z M 15.927734 166.25 L 12.132812 166.62695 L 14.179688 185.77344 L 27.490234 184.45117 L 27.169922 181.4668 L 17.65625 182.41016 L 15.927734 166.25 z M 58.355469 167.17773 C 57.874565 167.16973 57.357326 167.19305 56.802734 167.24805 C 52.365991 167.68852 50.721591 169.69805 51.023438 172.52148 L 54.59375 172.16797 C 54.57516 170.67518 55.421461 169.88497 57.095703 169.71875 C 58.88156 169.54146 59.833858 170.26145 59.980469 171.63281 C 60.058089 172.35883 59.678824 172.77619 58.242188 173.05469 L 55.337891 173.58789 C 51.739115 174.21692 50.608834 176.04173 50.835938 178.16602 C 51.109035 180.72054 53.098222 182.18089 56.474609 181.8457 C 58.930165 181.60192 60.292031 180.62385 60.931641 178.95703 C 61.04663 180.0326 61.30221 180.57752 61.775391 181.04688 L 65.041016 180.72266 C 64.713105 180.29324 64.416072 179.10103 64.214844 177.21875 L 63.580078 171.27539 C 63.315964 168.80489 61.721788 167.23625 58.355469 167.17773 z M 47.728516 168.41992 L 44.296875 168.75977 L 44.548828 171.12695 C 43.595032 169.59113 42.06381 168.71098 39.664062 168.94922 C 35.785401 169.33428 33.619686 172.29363 34.056641 176.38086 C 34.493599 180.46809 37.24048 182.93976 41.119141 182.55469 C 43.295656 182.33862 44.654499 181.3342 45.302734 179.74805 L 45.595703 182.49023 C 45.84293 184.80275 44.732035 186.02775 42.611328 186.23828 C 40.658046 186.4322 39.470635 185.59872 39.060547 183.87305 L 35.683594 184.20898 C 36.002686 187.19374 38.364327 188.97041 42.689453 188.54102 C 47.405235 188.07285 49.551751 185.46836 49.091797 181.16602 L 47.728516 168.41992 z M 31.314453 170.04883 L 27.714844 170.40625 L 29.199219 184.28125 L 32.798828 183.92383 L 31.314453 170.04883 z M 41.162109 171.31641 C 43.110104 171.29491 44.539755 172.61318 44.828125 175.31055 C 45.13572 178.18775 43.840018 179.78475 41.691406 179.99805 C 39.570699 180.20859 37.963845 178.90065 37.65625 176.02344 C 37.348655 173.14626 38.644918 171.55037 40.765625 171.33984 C 40.899913 171.32654 41.032243 171.31781 41.162109 171.31641 z M 60.275391 174.40234 L 60.378906 175.37109 C 60.59451 177.38782 59.513574 179.15338 57.28125 179.375 C 55.439584 179.55783 54.542393 178.80334 54.410156 177.56641 C 54.303792 176.5715 54.951533 175.77304 56.748047 175.43164 L 58.435547 175.12891 C 59.403565 174.95129 60.055876 174.72306 60.275391 174.40234 z M 163.93945 184.49609 C 163.66265 184.50109 163.37914 184.51602 163.08789 184.54492 C 158.45583 185.00478 156.25776 188.18547 156.71484 192.46094 C 157.1834 196.84379 160.1093 199.40656 164.79688 198.94141 C 168.67551 198.55635 170.68692 196.53626 170.99609 193.625 L 167.67578 193.95508 C 167.40959 195.42177 166.32883 196.39888 164.54297 196.57617 C 162.33855 196.79502 160.80603 195.64242 160.39258 192.83008 L 171.05078 191.77148 C 171.04378 191.44603 171.04352 191.1747 171.01172 190.87891 C 170.60207 187.04712 168.09139 184.42743 163.93945 184.49609 z M 103.48242 185.4082 L 99.882812 185.76562 L 100.67188 193.13477 C 99.701669 191.70927 98.158938 190.99095 95.982422 191.20703 C 92.103761 191.59209 89.932144 194.49861 90.417969 199.04297 C 90.903797 203.58732 93.644776 206.00615 97.523438 205.62109 C 99.923185 205.38285 101.23492 204.22025 101.84375 202.5293 L 102.09766 204.89453 L 105.5293 204.55469 L 103.48242 185.4082 z M 148.41016 186.0918 C 147.93404 186.0813 147.42025 186.10155 146.86914 186.15625 C 142.48822 186.59118 140.93475 188.67458 141.19922 191.14844 C 141.4522 193.51474 142.85125 194.46237 146.2207 194.58984 L 148.74023 194.69336 C 149.98813 194.75966 150.82126 195.16627 150.92188 196.10742 C 151.03111 197.12922 150.37126 198.06403 148.22266 198.27734 C 145.99034 198.49895 145.19663 197.68106 144.87109 196.21875 L 141.38281 196.56445 C 141.67603 199.3072 143.77807 201.02822 148.41016 200.56836 C 153.07012 200.10574 154.76252 198.00901 154.49805 195.53516 C 154.21345 192.8731 152.23485 192.0363 149.00781 191.92188 L 146.51562 191.81641 C 145.46881 191.78451 144.86727 191.43574 144.76953 190.52148 C 144.65167 189.41901 145.27217 188.62342 147.08594 188.44336 C 149.20666 188.23282 149.7603 189.18378 150.02344 190.32617 L 153.50977 189.98047 C 153.27333 187.76879 151.74299 186.16516 148.41016 186.0918 z M 164.05664 186.89258 C 165.65955 186.97718 166.79079 187.96256 167.26562 189.86523 L 160.15039 190.57227 C 160.22159 188.33686 161.35865 187.10879 163.33984 186.91211 C 163.58749 186.88751 163.82766 186.88048 164.05664 186.89258 z M 86.037109 187.14062 L 82.4375 187.49805 L 84.484375 206.64453 L 88.083984 206.28711 L 86.037109 187.14062 z M 133.49023 187.56055 C 133.12468 187.54565 132.73581 187.55831 132.32422 187.59961 C 129.98027 187.83231 128.80875 189.00794 128.18555 190.56445 L 127.94531 188.30664 L 124.51172 188.64648 L 125.99609 202.52344 L 129.5957 202.16406 L 128.76758 194.41992 C 128.5261 192.16118 129.61229 190.72158 131.50977 190.5332 C 133.26772 190.35868 134.06635 191.23102 134.26758 193.11328 L 135.17578 201.61133 L 137.65039 201.36523 L 135.62109 205.55273 L 138.35742 205.28125 L 141.51953 200.83789 L 138.76172 201.11133 L 137.79688 192.08398 C 137.48245 189.14291 136.04911 187.66505 133.49023 187.56055 z M 115.08984 189.3457 C 114.81304 189.3507 114.52758 189.36758 114.23633 189.39648 C 109.60425 189.85634 107.4062 193.03509 107.86328 197.31055 C 108.33186 201.69358 111.25744 204.2564 115.94531 203.79102 C 119.82398 203.40596 121.83538 201.38587 122.14453 198.47461 L 118.82422 198.80469 C 118.55802 200.2714 117.4792 201.24849 115.69336 201.42578 C 113.48893 201.64463 111.95448 200.49203 111.54102 197.67969 L 122.20117 196.62109 C 122.19417 196.29564 122.19441 196.02431 122.16211 195.72852 C 121.75246 191.89675 119.2418 189.27705 115.08984 189.3457 z M 54.746094 190.01172 C 54.415929 190.02072 54.080106 190.04217 53.738281 190.07617 C 47.431971 190.70224 44.31759 195.05947 44.941406 200.89453 C 45.565218 206.7296 49.537437 210.38584 55.84375 209.75977 C 61.424557 209.20573 64.681799 205.64748 64.230469 201.42578 L 60.630859 201.7832 C 60.586359 204.53231 58.927731 206.43547 55.523438 206.77344 C 51.533161 207.16958 49.20778 204.9275 48.736328 200.51758 C 48.264874 196.10768 50.068318 193.4567 54.058594 193.06055 C 57.518694 192.71705 59.499255 194.36753 60.095703 196.78125 L 63.695312 196.42383 C 63.280274 192.54162 59.698555 189.88171 54.746094 190.01172 z M 115.20508 191.74414 C 116.80799 191.82874 117.94118 192.81217 118.41602 194.71484 L 111.30078 195.42188 C 111.37198 193.18644 112.50906 191.9584 114.49023 191.76172 C 114.73788 191.73712 114.97609 191.73204 115.20508 191.74414 z M 74.611328 193.41406 C 74.130424 193.40606 73.615139 193.42742 73.060547 193.48242 C 68.623805 193.92289 66.977451 195.93635 67.279297 198.75977 L 70.849609 198.4043 C 70.831019 196.91151 71.677322 196.12129 73.351562 195.95508 C 75.137421 195.77778 76.089717 196.49776 76.236328 197.86914 C 76.313948 198.59516 75.934684 199.01447 74.498047 199.29297 L 71.59375 199.82422 C 67.994974 200.45325 66.864694 202.27805 67.091797 204.40234 C 67.364895 206.95687 69.354082 208.41723 72.730469 208.08203 C 75.186026 207.83825 76.54789 206.8602 77.1875 205.19336 C 77.302489 206.26896 77.558068 206.81385 78.03125 207.2832 L 81.296875 206.96094 C 80.968964 206.53152 80.671933 205.33736 80.470703 203.45508 L 79.835938 197.51172 C 79.571823 195.04123 77.977647 193.47258 74.611328 193.41406 z M 97.878906 193.75 C 99.629292 193.89054 100.89263 195.19826 101.18945 197.97461 C 101.52866 201.1476 100.22674 202.68904 98.078125 202.90234 C 95.957419 203.11288 94.356793 201.85854 94.017578 198.68555 C 93.678361 195.51258 94.978902 193.97031 97.099609 193.75977 C 97.368184 193.73307 97.628852 193.7299 97.878906 193.75 z M 195.85938 196.0957 L 192.25977 196.45117 L 194.30664 215.59766 L 197.90625 215.24023 L 195.85938 196.0957 z M 161.24609 199.53125 L 157.64453 199.88867 L 159.69141 219.03516 L 163.125 218.69336 L 162.87109 216.32617 C 163.82488 217.86199 165.33017 218.74687 167.75781 218.50586 C 171.63648 218.1208 173.80613 215.21427 173.32031 210.66992 C 172.83448 206.12556 170.09546 203.70674 166.2168 204.0918 C 164.04029 204.30788 162.68143 205.31227 162.0332 206.89844 L 161.24609 199.53125 z M 76.53125 200.63867 L 76.634766 201.60742 C 76.85037 203.62416 75.771386 205.38971 73.539062 205.61133 C 71.697395 205.79416 70.798254 205.03967 70.666016 203.80273 C 70.559652 202.80782 71.207392 202.00937 73.003906 201.66797 L 74.691406 201.36523 C 75.659424 201.18761 76.311735 200.95939 76.53125 200.63867 z M 151.58789 201.57617 L 147.98828 201.93359 L 148.43555 206.12891 L 146.17578 206.35352 L 146.44141 208.82812 L 148.70117 208.60352 L 149.50195 216.10547 C 149.82967 219.17088 151.02233 220.03115 154.28711 219.70703 C 154.92891 219.64333 156.0643 219.44791 156.64453 219.33594 L 156.39453 216.99805 L 154.89062 217.17383 C 153.74656 217.28741 153.23218 216.9584 153.11719 215.88281 L 152.30078 208.24609 L 155.42578 207.93555 L 155.16211 205.46094 L 152.03516 205.77148 L 151.58789 201.57617 z M 183.24219 202.43555 C 182.96158 202.44155 182.67365 202.45898 182.37891 202.48828 C 177.69104 202.95368 175.37218 206.06381 175.83789 210.41992 C 176.30645 214.80296 179.23203 217.36578 183.91992 216.90039 C 188.63569 216.43222 190.95686 213.34787 190.48828 208.96484 C 190.05167 204.88097 187.45122 202.35029 183.24219 202.43555 z M 127.49023 202.88281 L 113.00781 204.32031 L 115.05469 223.46484 L 118.84961 223.08789 L 117.95508 214.72656 L 127.75 213.75391 L 127.45117 210.95703 L 117.65625 211.92969 L 117.12305 206.92773 L 127.80859 205.86719 L 127.49023 202.88281 z M 183.51758 205.10938 C 185.41689 205.25446 186.60191 206.64004 186.88867 209.32227 C 187.21639 212.3877 186.03842 214.02738 183.63867 214.26562 C 181.26682 214.50109 179.7652 213.12793 179.4375 210.0625 C 179.10978 206.99707 180.28832 205.35852 182.66016 205.12305 C 182.96013 205.09325 183.24625 205.08857 183.51758 205.10938 z M 143.57422 206.61133 L 139.97461 206.96875 L 140.80273 214.71289 C 141.0442 216.97162 139.95803 218.41124 138.06055 218.59961 C 136.3026 218.77414 135.50396 217.90179 135.30273 216.01953 L 134.39453 207.52344 L 130.79492 207.88086 L 131.77539 217.05078 C 132.13473 220.412 133.92412 221.86398 137.2168 221.53711 C 139.58863 221.30164 140.76156 220.12485 141.38477 218.56836 L 141.625 220.82812 L 145.05859 220.48633 L 143.57422 206.61133 z M 166.41211 206.80273 C 168.1625 206.94327 169.42584 208.25099 169.72266 211.02734 C 170.06187 214.20033 168.75995 215.74177 166.61133 215.95508 C 164.49065 216.16562 162.88999 214.91127 162.55078 211.73828 C 162.21156 208.56531 163.5121 207.02303 165.63281 206.8125 C 165.90138 206.7858 166.16205 206.78263 166.41211 206.80273 z M 87.484375 206.85352 L 83.884766 207.21094 L 84.671875 214.58008 C 83.701673 213.15459 82.158937 212.43627 79.982422 212.65234 C 76.103761 213.0374 73.934095 215.94392 74.419922 220.48828 C 74.905748 225.03264 77.644777 227.45147 81.523438 227.06641 C 83.923186 226.82817 85.236873 225.66554 85.845703 223.97461 L 86.099609 226.33984 L 89.53125 226 L 87.484375 206.85352 z M 99.091797 210.79102 C 98.815 210.79602 98.52953 210.8129 98.238281 210.8418 C 93.606212 211.30166 91.408156 214.48041 91.865234 218.75586 C 92.333814 223.13889 95.259387 225.70173 99.947266 225.23633 C 103.82593 224.85127 105.83731 222.83115 106.14648 219.91992 L 102.82617 220.25 C 102.55997 221.71671 101.47922 222.69379 99.693359 222.87109 C 97.48894 223.08993 95.95643 221.93731 95.542969 219.125 L 106.20117 218.06641 C 106.19417 217.74096 106.19586 217.46962 106.16406 217.17383 C 105.75441 213.34206 103.24375 210.72237 99.091797 210.79102 z M 99.207031 213.18945 C 100.80994 213.27405 101.94118 214.25749 102.41602 216.16016 L 95.300781 216.86719 C 95.372001 214.63176 96.511002 213.40372 98.492188 213.20703 C 98.739835 213.18243 98.978045 213.17735 99.207031 213.18945 z M 81.880859 215.19531 C 83.631242 215.33586 84.892638 216.64355 85.189453 219.41992 C 85.528668 222.59289 84.226736 224.13435 82.078125 224.34766 C 79.957418 224.5582 78.358748 223.30383 78.019531 220.13086 C 77.680314 216.95787 78.980855 215.41561 81.101562 215.20508 C 81.370139 215.17838 81.630804 215.17521 81.880859 215.19531 z "
           d="m 29.400391,164.54102 c -0.150514,-0.009 -0.311092,-0.005 -0.478516,0.0117 -1.339395,0.13297 -2.009631,0.98795 -1.900391,2.00977 0.109237,1.0218 0.945764,1.72672 2.285157,1.59375 1.339394,-0.13297 1.982284,-0.98405 1.873047,-2.00586 -0.09558,-0.89408 -0.725691,-1.54901 -1.779297,-1.60937 z m -13.472657,1.70898 -3.794922,0.37695 2.046876,19.14649 13.310546,-1.32227 -0.320312,-2.98437 -9.513672,0.94336 z m 42.427735,0.92773 c -0.480904,-0.008 -0.998143,0.0153 -1.552735,0.0703 -4.436743,0.44047 -6.081143,2.45 -5.779296,5.27343 l 3.570312,-0.35351 c -0.01859,-1.49279 0.827711,-2.283 2.501953,-2.44922 1.785857,-0.17729 2.738155,0.5427 2.884766,1.91406 0.07762,0.72602 -0.301645,1.14338 -1.738281,1.42188 l -2.904297,0.5332 c -3.598776,0.62903 -4.729057,2.45384 -4.501953,4.57813 0.273097,2.55452 2.262284,4.01487 5.638671,3.67968 2.455556,-0.24378 3.817422,-1.22185 4.457032,-2.88867 0.114989,1.07557 0.370569,1.62049 0.84375,2.08985 l 3.265625,-0.32422 c -0.327911,-0.42942 -0.624944,-1.62163 -0.826172,-3.50391 l -0.634766,-5.94336 c -0.264114,-2.4705 -1.85829,-4.03914 -5.224609,-4.09766 z m -10.626953,1.24219 -3.431641,0.33985 0.251953,2.36718 c -0.953796,-1.53582 -2.485018,-2.41597 -4.884766,-2.17773 -3.878661,0.38506 -6.044376,3.34441 -5.607421,7.43164 0.436958,4.08723 3.183839,6.5589 7.0625,6.17383 2.176515,-0.21607 3.535358,-1.22049 4.183593,-2.80664 l 0.292969,2.74218 c 0.247227,2.31252 -0.863668,3.53752 -2.984375,3.74805 -1.953282,0.19392 -3.140693,-0.63956 -3.550781,-2.36523 l -3.376953,0.33593 c 0.319092,2.98476 2.680733,4.76143 7.005859,4.33204 4.715782,-0.46817 6.862298,-3.07266 6.402344,-7.375 z m -16.414063,1.62891 -3.599609,0.35742 1.484375,13.875 3.599609,-0.35742 z m 9.847656,1.26758 c 1.947995,-0.0215 3.377646,1.29677 3.666016,3.99414 0.307595,2.8772 -0.988107,4.4742 -3.136719,4.6875 -2.120707,0.21054 -3.727561,-1.0974 -4.035156,-3.97461 -0.307595,-2.87718 0.988668,-4.47307 3.109375,-4.6836 0.134288,-0.0133 0.266618,-0.022 0.396484,-0.0234 z m 19.113282,3.08593 0.103515,0.96875 c 0.215604,2.01673 -0.865332,3.78229 -3.097656,4.00391 -1.841666,0.18283 -2.738857,-0.57166 -2.871094,-1.80859 -0.106364,-0.99491 0.541377,-1.79337 2.337891,-2.13477 l 1.6875,-0.30273 c 0.968018,-0.17762 1.620329,-0.40585 1.839844,-0.72657 z m 103.664059,10.09375 c -0.2768,0.005 -0.56031,0.0199 -0.85156,0.0488 -4.63206,0.45986 -6.83013,3.64055 -6.37305,7.91602 0.46856,4.38285 3.39446,6.94562 8.08204,6.48047 3.87863,-0.38506 5.89004,-2.40515 6.19921,-5.31641 l -3.32031,0.33008 c -0.26619,1.46669 -1.34695,2.4438 -3.13281,2.62109 -2.20442,0.21885 -3.73694,-0.93375 -4.15039,-3.74609 l 10.6582,-1.0586 c -0.007,-0.32545 -0.007,-0.59678 -0.0391,-0.89257 -0.40965,-3.83179 -2.92033,-6.45148 -7.07227,-6.38282 z m -60.45703,0.91211 -3.599608,0.35742 0.789068,7.36915 c -0.970211,-1.4255 -2.512942,-2.14382 -4.689458,-1.92774 -3.878661,0.38506 -6.050278,3.29158 -5.564453,7.83594 0.485828,4.54435 3.226807,6.96318 7.105469,6.57812 2.399747,-0.23824 3.711482,-1.40084 4.320312,-3.09179 l 0.25391,2.36523 3.43164,-0.33984 z m 44.92774,0.6836 c -0.47612,-0.0105 -0.98991,0.01 -1.54102,0.0644 -4.38092,0.43493 -5.93439,2.51833 -5.66992,4.99219 0.25298,2.3663 1.65203,3.31393 5.02148,3.4414 l 2.51953,0.10352 c 1.2479,0.0663 2.08103,0.47291 2.18165,1.41406 0.10923,1.0218 -0.55062,1.95661 -2.69922,2.16992 -2.23232,0.22161 -3.02603,-0.59628 -3.35157,-2.05859 l -3.48828,0.3457 c 0.29322,2.74275 2.39526,4.46377 7.02735,4.00391 4.65996,-0.46262 6.35236,-2.55935 6.08789,-5.0332 -0.2846,-2.66206 -2.2632,-3.49886 -5.49024,-3.61328 l -2.49219,-0.10547 c -1.04681,-0.0319 -1.64835,-0.38067 -1.74609,-1.29493 -0.11786,-1.10247 0.50264,-1.89806 2.31641,-2.07812 2.12072,-0.21054 2.67436,0.74042 2.9375,1.88281 l 3.48633,-0.3457 c -0.23644,-2.21168 -1.76678,-3.81531 -5.09961,-3.88867 z m 15.64648,0.80078 c 1.60291,0.0846 2.73415,1.06998 3.20898,2.97265 l -7.11523,0.70704 c 0.0712,-2.23541 1.20826,-3.46348 3.18945,-3.66016 0.24765,-0.0246 0.48782,-0.0316 0.7168,-0.0195 z m -78.019531,0.24804 -3.599609,0.35743 2.046875,19.14648 3.599609,-0.35742 z m 47.453121,0.41993 c -0.36555,-0.0149 -0.75442,-0.002 -1.16601,0.0391 -2.34395,0.2327 -3.51547,1.40833 -4.13867,2.96484 l -0.24024,-2.25781 -3.43359,0.33984 1.48437,13.87696 3.59961,-0.35938 -0.82812,-7.74414 c -0.24148,-2.25874 0.84471,-3.69834 2.74219,-3.88672 1.75795,-0.17452 2.55658,0.69782 2.75781,2.58008 l 0.9082,8.49805 2.47461,-0.2461 -2.0293,4.1875 2.73633,-0.27148 3.16211,-4.44336 -2.75781,0.27344 -0.96484,-9.02735 c -0.31443,-2.94107 -1.74777,-4.41893 -4.30665,-4.52343 z m -18.40039,1.78515 c -0.2768,0.005 -0.56226,0.0219 -0.85351,0.0508 -4.63208,0.45986 -6.83013,3.63861 -6.37305,7.91407 0.46858,4.38303 3.39416,6.94585 8.08203,6.48047 3.87867,-0.38506 5.89007,-2.40515 6.19922,-5.31641 l -3.32031,0.33008 c -0.2662,1.46671 -1.34502,2.4438 -3.13086,2.62109 -2.20443,0.21885 -3.73888,-0.93375 -4.15234,-3.74609 l 10.66015,-1.0586 c -0.007,-0.32545 -0.007,-0.59678 -0.0391,-0.89257 -0.40965,-3.83177 -2.92031,-6.45147 -7.07227,-6.38282 z m -60.343746,0.66602 c -0.330165,0.009 -0.665988,0.0305 -1.007813,0.0644 -6.30631,0.62607 -9.420691,4.9833 -8.796875,10.81836 0.623812,5.83507 4.596031,9.49131 10.902344,8.86524 5.580807,-0.55404 8.838049,-4.11229 8.386719,-8.33399 l -3.59961,0.35742 c -0.0445,2.74911 -1.703128,4.65227 -5.107421,4.99024 -3.990277,0.39614 -6.315658,-1.84594 -6.78711,-6.25586 -0.471454,-4.4099 1.33199,-7.06088 5.322266,-7.45703 3.4601,-0.3435 5.440661,1.30698 6.037109,3.7207 l 3.599609,-0.35742 c -0.415038,-3.88221 -3.996757,-6.54212 -8.949218,-6.41211 z m 60.458986,1.73242 c 1.60291,0.0846 2.7361,1.06803 3.21094,2.9707 l -7.11524,0.70704 c 0.0712,-2.23544 1.20828,-3.46348 3.18945,-3.66016 0.24765,-0.0246 0.48586,-0.0297 0.71485,-0.0176 z m -40.593752,1.66992 c -0.480904,-0.008 -0.996189,0.0134 -1.550781,0.0684 -4.436742,0.44047 -6.083096,2.45393 -5.78125,5.27735 l 3.570312,-0.35547 c -0.01859,-1.49279 0.827713,-2.28301 2.501953,-2.44922 1.785859,-0.1773 2.738155,0.54268 2.884766,1.91406 0.07762,0.72602 -0.301644,1.14533 -1.738281,1.42383 l -2.904297,0.53125 c -3.598776,0.62903 -4.729056,2.45383 -4.501953,4.57812 0.273098,2.55453 2.262285,4.01489 5.638672,3.67969 2.455557,-0.24378 3.817421,-1.22183 4.457031,-2.88867 0.114989,1.0756 0.370568,1.62049 0.84375,2.08984 l 3.265625,-0.32226 c -0.327911,-0.42942 -0.624942,-1.62358 -0.826172,-3.50586 l -0.634765,-5.94336 c -0.264115,-2.47049 -1.858291,-4.03914 -5.22461,-4.09766 z M 97.878906,193.75 c 1.750386,0.14054 3.013724,1.44826 3.310544,4.22461 0.33921,3.17299 -0.96271,4.71443 -3.111325,4.92773 -2.120706,0.21054 -3.721332,-1.0438 -4.060547,-4.21679 -0.339217,-3.17297 0.961324,-4.71524 3.082031,-4.92578 0.268575,-0.0267 0.529243,-0.0299 0.779297,-0.01 z m 97.980474,2.3457 -3.59961,0.35547 2.04687,19.14649 3.59961,-0.35743 z m -34.61329,3.43555 -3.60156,0.35742 2.04688,19.14649 3.43359,-0.3418 -0.25391,-2.36719 c 0.95379,1.53582 2.45908,2.4207 4.88672,2.17969 3.87867,-0.38506 6.04832,-3.29159 5.5625,-7.83594 -0.48583,-4.54436 -3.22485,-6.96318 -7.10351,-6.57812 -2.17651,0.21608 -3.53537,1.22047 -4.1836,2.80664 z m -84.71484,1.10742 0.103516,0.96875 c 0.215604,2.01674 -0.86338,3.78229 -3.095704,4.00391 -1.841667,0.18283 -2.740808,-0.57166 -2.873046,-1.8086 -0.106364,-0.99491 0.541376,-1.79336 2.33789,-2.13476 l 1.6875,-0.30274 c 0.968018,-0.17762 1.620329,-0.40584 1.839844,-0.72656 z m 75.05664,0.9375 -3.59961,0.35742 0.44727,4.19532 -2.25977,0.22461 0.26563,2.4746 2.25976,-0.2246 0.80078,7.50195 c 0.32772,3.06541 1.52038,3.92568 4.78516,3.60156 0.6418,-0.0637 1.77719,-0.25912 2.35742,-0.37109 l -0.25,-2.33789 -1.50391,0.17578 c -1.14406,0.11358 -1.65844,-0.21543 -1.77343,-1.29102 l -0.81641,-7.63672 3.125,-0.31054 -0.26367,-2.47461 -3.12695,0.31054 z m 31.6543,0.85938 c -0.28061,0.006 -0.56854,0.0234 -0.86328,0.0527 -4.68787,0.4654 -7.00673,3.57553 -6.54102,7.93164 0.46856,4.38304 3.39414,6.94586 8.08203,6.48047 4.71577,-0.46817 7.03694,-3.55252 6.56836,-7.93555 -0.43661,-4.08387 -3.03706,-6.61455 -7.24609,-6.52929 z m -55.75196,0.44726 -14.48242,1.4375 2.04688,19.14453 3.79492,-0.37695 -0.89453,-8.36133 9.79492,-0.97265 -0.29883,-2.79688 -9.79492,0.97266 -0.5332,-5.00196 10.68554,-1.06054 z m 56.02735,2.22657 c 1.89931,0.14508 3.08433,1.53066 3.37109,4.21289 0.32772,3.06543 -0.85025,4.70511 -3.25,4.94335 -2.37185,0.23547 -3.87347,-1.13769 -4.20117,-4.20312 -0.32772,-3.06543 0.85082,-4.70398 3.22266,-4.93945 0.29997,-0.0298 0.58609,-0.0345 0.85742,-0.0137 z m -39.94336,1.50195 -3.59961,0.35742 0.82812,7.74414 c 0.24147,2.25873 -0.8447,3.69835 -2.74218,3.88672 -1.75795,0.17453 -2.55659,-0.69782 -2.75782,-2.58008 l -0.9082,-8.49609 -3.59961,0.35742 0.98047,9.16992 c 0.35934,3.36122 2.14873,4.8132 5.44141,4.48633 2.37183,-0.23547 3.54476,-1.41226 4.16797,-2.96875 l 0.24023,2.25976 3.43359,-0.34179 z m 22.83789,0.1914 c 1.75039,0.14054 3.01373,1.44826 3.31055,4.22461 0.33921,3.17299 -0.96271,4.71443 -3.11133,4.92774 -2.12068,0.21054 -3.72134,-1.04381 -4.06055,-4.2168 -0.33922,-3.17297 0.96132,-4.71525 3.08203,-4.92578 0.26857,-0.0267 0.52924,-0.0299 0.7793,-0.01 z m -78.927735,0.0508 -3.599609,0.35742 0.787109,7.36914 c -0.970202,-1.42549 -2.512938,-2.14381 -4.689453,-1.92774 -3.878661,0.38506 -6.048327,3.29158 -5.5625,7.83594 0.485826,4.54436 3.224855,6.96319 7.103516,6.57813 2.399748,-0.23824 3.713435,-1.40087 4.322265,-3.0918 l 0.253906,2.36523 L 89.53125,226 Z m 11.607422,3.9375 c -0.276797,0.005 -0.562267,0.0219 -0.853516,0.0508 -4.632069,0.45986 -6.830125,3.63861 -6.373047,7.91406 0.46858,4.38303 3.394153,6.94587 8.082032,6.48047 3.878664,-0.38506 5.890044,-2.40518 6.199214,-5.31641 l -3.32031,0.33008 c -0.2662,1.46671 -1.34695,2.44379 -3.132811,2.62109 -2.204419,0.21884 -3.736929,-0.93378 -4.15039,-3.74609 l 10.658201,-1.05859 c -0.007,-0.32545 -0.005,-0.59679 -0.0371,-0.89258 -0.40965,-3.83177 -2.92031,-6.45146 -7.072263,-6.38281 z m 0.115234,2.39843 c 1.602909,0.0846 2.734149,1.06804 3.208989,2.97071 l -7.115239,0.70703 c 0.07122,-2.23543 1.210221,-3.46347 3.191407,-3.66016 0.247647,-0.0246 0.485857,-0.0297 0.714843,-0.0176 z m -17.326172,2.00586 c 1.750383,0.14055 3.011779,1.44824 3.308594,4.22461 0.339215,3.17297 -0.962717,4.71443 -3.111328,4.92774 -2.120707,0.21054 -3.719377,-1.04383 -4.058594,-4.2168 -0.339217,-3.17299 0.961324,-4.71525 3.082031,-4.92578 0.268577,-0.0267 0.529242,-0.0299 0.779297,-0.01 z"
           inkscape:label="letra" /></g><g
         id="g45"
         transform="matrix(1.0821215,0,0,1.0821215,-118.79527,-222.44725)"
         style="display:inline"><path
           style="fill:#d5866b;fill-opacity:1;fill-rule:evenodd;stroke:#000000;stroke-width:0.326;stroke-linecap:round;stroke-dasharray:none;paint-order:markers fill stroke"
           d="m 22.396859,303.65235 c 8.70688,0.75735 9.06587,-6.77916 8.51832,-13.21985 0.89693,-1.66552 0.69355,-2.12903 0.69355,-2.12903 -0.5409,0.71701 -5.76912,1.82534 -8.52895,-2.31441 -2.16475,3.40513 -7.701521,3.0029 -8.554929,2.41695 l 0.351656,1.75304 c -0.222268,6.11875 -0.704339,13.56152 7.520353,13.4933 z"
           id="path29"
           sodipodi:nodetypes="ccccccc" /><g
           id="g40"
           transform="translate(-82.939001,190.52017)"><path
             style="opacity:1;fill:#3c3a12;fill-opacity:1;fill-rule:evenodd;stroke:none;stroke-width:0.526;stroke-linecap:round;stroke-dasharray:none;paint-order:markers fill stroke"
             d="m 104.48888,112.93504 1.11976,-0.0684 0.80246,0.0528 c -0.004,4.63384 -0.0301,9.2894 0.052,13.837 -0.49785,0.51134 -1.83668,0.31214 -2.13627,-0.0553 0.15451,-4.6063 0.0595,-9.09726 0.16205,-13.76606 z"
             id="path32"
             sodipodi:nodetypes="cccccc" /><path
             id="path45"
             style="opacity:1;fill:#050400;fill-opacity:1;fill-rule:evenodd;stroke:none;stroke-width:0.378721;stroke-linecap:round;stroke-dasharray:none;paint-order:markers fill stroke"
             d="m 106.02018,112.86622 -0.58019,0.0689 -0.39222,-0.0557 c -0.0174,1.53129 -0.0186,3.08491 -0.0178,4.64141 -0.62841,-0.43627 -1.17114,-0.93645 -1.74466,-1.32731 -0.8575,-0.65869 -1.88696,-0.67911 -2.91616,-0.7609 -0.935795,-0.0678 -1.874664,-0.0927 -2.795816,0.10201 -0.575827,0.12173 0.487133,1.70436 1.649148,2.84143 1.650988,1.61554 4.058758,1.85072 5.277618,1.85565 h 0.53135 c 0.003,2.28609 0.002,4.56343 -0.037,6.78191 0.45174,0.20578 1.67154,-0.17739 1.46823,-0.25639 -0.0202,-2.15621 -0.026,-4.33752 -0.0281,-6.52845 1.26578,-0.10811 2.1299,-0.25677 2.77367,-0.45124 1.26842,-0.38317 3.21653,-2.0163 4.03469,-3.11039 0.90556,-1.46033 -0.65723,-1.00151 -1.69173,-0.95231 -0.92414,0.0439 -1.73386,0.1853 -2.51909,0.63878 -0.90164,0.52071 -1.75394,1.06855 -2.59754,1.27463 7.1e-4,-1.5693 8.1e-4,-3.13945 0.001,-4.7088 z"
             sodipodi:nodetypes="ccccsssscccccscssccc" /><g
             id="g39"><g
               id="g38"
               transform="matrix(3.7274029,0,0,3.9269465,-50.316384,-297.54601)"
               style="stroke-width:0.261379"><path
                 style="opacity:1;fill:#6c1919;fill-opacity:1;fill-rule:evenodd;stroke:#000000;stroke-width:0.00522756;stroke-linecap:round;stroke-dasharray:none;stroke-opacity:1;paint-order:markers fill stroke"
                 d="m 41.857595,103.84114 c 0,0 -0.126829,-2.08604 -0.116324,-2.30109 0.0089,-0.18103 0.09084,-0.43627 0.01286,-0.59123 l -0.184458,-0.46327 0.09102,0.47154 -0.177289,0.60266 c -0.0603,0.82726 0.06812,1.43162 0.06084,1.88413 -0.006,0.37077 0.186057,0.88778 0.227577,1.01501 z"
                 id="path33"
                 sodipodi:nodetypes="csccccscc" /><path
                 style="opacity:1;fill:#691a0d;fill-opacity:1;fill-rule:evenodd;stroke:#000000;stroke-width:0.00522756;stroke-linecap:round;stroke-dasharray:none;stroke-opacity:1;paint-order:markers fill stroke"
                 d="m 41.75128,104.67626 c -0.01772,-0.002 -0.204068,-0.0236 -0.228026,-0.0552 -0.718744,-0.94907 -0.703705,-2.21346 -0.393362,-3.12793 0.07536,-0.22207 0.209669,-0.39287 0.356494,-0.58956 l -0.05982,-0.43581 0.263107,0.45289 -0.169111,0.65798 c -0.05035,0.72851 0.07078,1.51573 0.11963,2.27299 l 0.111088,0.55543 z"
                 id="path34"
                 sodipodi:nodetypes="cssccccccc" /><path
                 style="opacity:1;fill:#6c1919;fill-opacity:1;fill-rule:evenodd;stroke:#000000;stroke-width:0.00522756;stroke-linecap:round;stroke-dasharray:none;stroke-opacity:1;paint-order:markers fill stroke"
                 d="m 42.1529,103.82664 c 0.349473,-0.71524 0.336938,-1.75176 0.114042,-2.30226 -0.07452,-0.18403 -0.162113,-0.36767 -0.256642,-0.59336 l 0.03964,-0.4476 -0.140489,0.46327 0.08936,0.59336 c 0.198663,1.38627 -0.292388,2.51375 -0.24753,2.8639 1e-6,0 0.31612,-0.40233 0.401619,-0.57731 z"
                 id="path35"
                 sodipodi:nodetypes="sscccccs" /><path
                 style="opacity:1;fill:#6a150d;fill-opacity:1;fill-rule:evenodd;stroke:#000000;stroke-width:0.00522756;stroke-linecap:round;stroke-dasharray:none;stroke-opacity:1;paint-order:markers fill stroke"
                 d="m 41.75128,104.67626 c 0,0 0.271459,-0.0206 0.282316,-0.0206 0.297459,0 0.462656,-0.61125 0.571741,-0.83492 0.400655,-0.82153 0.453707,-1.75379 0.06133,-2.30873 -0.135387,-0.19148 -0.333116,-0.37641 -0.441333,-0.59671 l 0.08451,-0.4476 -0.299544,0.46327 0.256642,0.59336 c 0.423582,1.38627 -0.259116,2.52213 -0.515666,2.88266 z"
                 id="path36"
                 sodipodi:nodetypes="cssscccccc" /><path
                 style="opacity:1;fill:#60140a;fill-opacity:1;fill-rule:evenodd;stroke:none;stroke-width:0.00522756;stroke-linecap:round;stroke-dasharray:none;stroke-opacity:1;paint-order:markers fill stroke"
                 d="m 41.957975,103.80422 c 0.186706,-0.77777 0.135607,-2.05852 0.07184,-2.26417 -0.05215,-0.16821 -0.05431,-0.36513 -0.120367,-0.59336 l -0.184458,-0.46327 0.09102,0.47154 -0.111143,0.58509 c 0.03899,1.42175 -0.06236,2.49887 0.04641,2.83702 0.04185,-0.076 0.170452,-0.42187 0.206695,-0.57285 z"
                 id="path37"
                 sodipodi:nodetypes="sscccccs" /><path
                 id="path38"
                 style="opacity:1;fill:#6a150d;fill-rule:evenodd;stroke-width:0.00522756;stroke-linecap:round;stroke-opacity:0.496961;paint-order:markers fill stroke"
                 d="m 41.732941,104.40395 h 0.03668 c 0.0012,0 0.0022,0.0533 0.0022,0.11954 0,0.0662 -0.0015,0.11856 -0.0022,0.11954 -0.01065,0.014 -0.02401,0.017 -0.04081,0.006 -10e-4,-6.5e-4 0.0019,-0.0595 0.0019,-0.12574 0,-0.0662 9.67e-4,-0.11954 0.0022,-0.11954 z"
                 sodipodi:nodetypes="sssssss" /></g><path
               style="fill:#4d512c;fill-opacity:1;fill-rule:evenodd;stroke-width:0.326001;stroke-linecap:round;paint-order:markers fill stroke"
               d="m 103.31088,111.27862 c 0.25908,0.68646 0.43706,1.65051 1.16709,2.1908 0.63679,0.21939 1.27241,0.14512 1.93241,0.11972 l 0.48871,-0.35825 c 0.78621,-0.48803 0.94321,-1.52128 1.2963,-2.33611 l -1.084,1.03346 -0.57468,-1.26979 -0.73412,1.3168 -0.82634,-1.12414 -0.25917,1.16189 z"
               id="path39"
               sodipodi:nodetypes="ccccccccccc" /></g></g></g></g></g></svg>
